#!OML:ASF F:\VICON\USERDATA\INSTALL\rory3\rory3.ASF
:FULLY-SPECIFIED
:DEGREES
409
root 4.0237 16.6929 0.173147 12.9745 1.04823 0.136573
lowerback 5.07108 -1.4101 5.3022
upperback 1.307 -1.65375 -2.64996
thorax -1.72198 -0.848795 -5.627
lowerneck -9.06621 5.4674 1.46629
upperneck 51.1517 8.69133 0.22446
head 23.6342 3.48596 1.62358
rclavicle -9.93923e-016 -3.97569e-015
rhumerus -33.9325 22.6092 -83.9517
rradius 104.282
rwrist -52.3577
rhand 0.337982 -35.8533
rfingers 7.12502
rthumb 25.9141 -64.1072
lclavicle -9.93923e-016 -3.97569e-015
lhumerus 4.48058 -10.1912 65.693
lradius 93.9801
lwrist 57.6818
lhand -21.2633 -22.2948
lfingers 7.12502
lthumb 5.12009 7.62336
rfemur -59.4378 7.08812 17.5295
rtibia 78.7833
rfoot 15.2774 -5.40754
rtoes -19.2573
lfemur -34.4208 -0.948883 -29.2418
ltibia 45.3376
lfoot -21.3339 12.7938
ltoes 7.96563
410
root 4.0213 16.6878 0.18359 12.9015 1.06596 0.334977
lowerback 5.13918 -1.44125 5.15634
upperback 1.36845 -1.70065 -2.6843
thorax -1.69985 -0.869448 -5.57572
lowerneck -8.97885 5.579 1.42968
upperneck 51.0787 8.91008 0.170953
head 23.527 3.55996 1.63665
rclavicle 1.35174e-014 3.57812e-015
rhumerus -34.1181 22.7415 -84.4696
rradius 104.123
rwrist -52.4727
rhand 0.458927 -36.5256
rfingers 7.12502
rthumb 26.0299 -64.7625
lclavicle 1.35174e-014 3.57812e-015
lhumerus 3.96402 -10.1492 66.2669
lradius 94.1409
lwrist 57.9925
lhand -21.4472 -22.4813
lfingers 7.12502
lthumb 4.94255 7.44104
rfemur -59.3415 6.99536 17.2781
rtibia 78.8938
rfoot 15.0397 -5.22147
rtoes -19.6128
lfemur -34.3297 -0.941127 -29.4598
ltibia 45.316
lfoot -21.2385 12.8724
ltoes 7.30188
411
root 4.01791 16.6767 0.189004 12.8798 0.999391 0.547921
lowerback 5.01758 -1.26242 5.0441
upperback 1.17405 -1.47549 -2.81818
thorax -1.80355 -0.765041 -5.66909
lowerneck -8.57206 5.50572 1.35616
upperneck 51.8315 8.61642 0.737494
head 24.061 3.48154 1.93085
rclavicle -4.77083e-015 3.97569e-015
rhumerus -35.2166 22.4404 -85.2253
rradius 104.136
rwrist -52.5937
rhand 0.606127 -37.1694
rfingers 7.12502
rthumb 26.1708 -65.3854
lclavicle -4.77083e-015 3.97569e-015
lhumerus 3.11922 -10.7355 66.9832
lradius 94.3027
lwrist 58.3016
lhand -21.5665 -22.5216
lfingers 7.12502
lthumb 4.82737 7.4034
rfemur -59.3493 6.9269 17.015
rtibia 79.0363
rfoot 14.8908 -4.92041
rtoes -20.5065
lfemur -34.3001 -0.903847 -29.7016
ltibia 45.3376
lfoot -21.29 12.8544
ltoes 7.364
412
root 4.01047 16.665 0.184042 12.9822 0.940288 0.614112
lowerback 5.15337 -1.35008 4.9211
upperback 1.33939 -1.59213 -2.75823
thorax -1.71924 -0.815811 -5.52644
lowerneck -9.48035 5.69921 1.1937
upperneck 52.2593 9.05637 0.763173
head 24.949 3.55312 2.1639
rclavicle -1.98785e-016 -3.97569e-015
rhumerus -35.0017 22.8573 -85.6281
rradius 103.959
rwrist -52.5719
rhand 0.732429 -37.2495
rfingers 7.12502
rthumb 26.2917 -65.4476
lclavicle -1.98785e-016 -3.97569e-015
lhumerus 2.96319 -10.299 67.4272
lradius 94.3337
lwrist 58.5774
lhand -21.6515 -23.0655
lfingers 7.12502
lthumb 4.74531 6.86136
rfemur -59.5671 6.94349 16.9025
rtibia 79.1576
rfoot 14.8554 -4.62658
rtoes -21.5718
lfemur -34.4853 -0.833115 -29.7644
ltibia 45.4232
lfoot -21.3345 12.7381
ltoes 7.57788
413
root 4.00398 16.6663 0.186095 13.1182 1.0427 0.618031
lowerback 4.8238 -1.0999 5.11875
upperback 1.2221 -1.26569 -2.92694
thorax -1.62063 -0.653747 -5.84426
lowerneck -8.84951 5.4897 1.78006
upperneck 52.4312 8.56594 0.698502
head 24.9394 3.50803 1.88564
rclavicle 1.55052e-014 2.98177e-014
rhumerus -35.8557 22.0611 -86.3486
rradius 103.847
rwrist -52.3911
rhand 0.991599 -36.9749
rfingers 7.12502
rthumb 26.5398 -65.1357
lclavicle 1.55052e-014 2.98177e-014
lhumerus 2.42621 -11.231 67.9869
lradius 94.4441
lwrist 58.8429
lhand -21.7749 -22.8503
lfingers 7.12502
lthumb 4.62608 7.07915
rfemur -59.6993 6.87732 16.8672
rtibia 79.1867
rfoot 14.7654 -4.35931
rtoes -22.5136
lfemur -34.6788 -0.829464 -29.7392
ltibia 45.5534
lfoot -21.3818 12.6049
ltoes 7.77411
414
root 4.00172 16.67 0.196529 13.2055 1.15766 0.568596
lowerback 4.47351 -1.14155 5.29264
upperback 1.46515 -1.32939 -2.917
thorax -1.18512 -0.665634 -5.93597
lowerneck -9.1991 5.54731 1.57014
upperneck 52.3701 8.62751 0.899158
head 24.9726 3.49966 2.07274
rclavicle 7.7526e-015 2.38542e-015
rhumerus -35.4752 22.1502 -86.6626
rradius 103.495
rwrist -52.5538
rhand 1.69504 -37.0879
rfingers 7.12502
rthumb 27.2129 -65.1451
lclavicle 7.7526e-015 2.38542e-015
lhumerus 2.0782 -11.0185 68.4378
lradius 94.6075
lwrist 58.9491
lhand -21.6487 -22.1152
lfingers 7.12502
lthumb 4.74798 7.81158
rfemur -59.6697 6.78895 16.8839
rtibia 79.1662
rfoot 14.7785 -4.1881
rtoes -22.4813
lfemur -34.78 -0.847086 -29.6627
ltibia 45.6984
lfoot -21.5449 12.4857
ltoes 8.11926
415
root 3.996 16.6635 0.199958 13.2081 1.21425 0.477606
lowerback 4.37977 -1.15157 5.45571
upperback 1.63581 -1.34068 -2.89758
thorax -0.960387 -0.659192 -6.01119
lowerneck -9.55471 5.57062 1.11979
upperneck 52.3269 8.58318 1.36781
head 24.9553 3.43355 2.43882
rclavicle -6.36111e-015 -1.78906e-014
rhumerus -35.2175 22.2503 -87.0134
rradius 103.172
rwrist -52.6493
rhand 0.300289 -35.4306
rfingers 7.12502
rthumb 25.878 -63.6897
lclavicle -6.36111e-015 -1.78906e-014
lhumerus 1.87493 -10.9279 68.8496
lradius 94.5902
lwrist 59.0496
lhand -21.4997 -22.149
lfingers 7.12502
lthumb 4.89181 7.77456
rfemur -59.6279 6.81747 16.957
rtibia 79.1758
rfoot 14.8233 -4.16798
rtoes -21.92
lfemur -34.8488 -0.831194 -29.5314
ltibia 45.8135
lfoot -21.6538 12.3868
ltoes 8.301
416
root 3.98543 16.6525 0.203194 13.2201 1.20441 0.529106
lowerback 4.43504 -1.07515 5.37356
upperback 1.49387 -1.2389 -2.89566
thorax -1.12202 -0.617472 -5.96608
lowerneck -9.25825 5.5061 0.796719
upperneck 52.5905 8.39794 1.79176
head 25.0246 3.34394 2.70851
rclavicle 7.95139e-016 -4.37326e-015
rhumerus -35.7775 22.2015 -87.5349
rradius 103.029
rwrist -52.6809
rhand 0.53635 -35.876
rfingers 7.12502
rthumb 26.104 -64.1019
lclavicle 7.95139e-016 -4.37326e-015
lhumerus 1.14919 -11.2093 69.4602
lradius 94.609
lwrist 59.1597
lhand -21.4563 -22.321
lfingers 7.12502
lthumb 4.93376 7.60157
rfemur -59.692 6.85518 16.8891
rtibia 79.2493
rfoot 14.6721 -4.10906
rtoes -22.3234
lfemur -34.9236 -0.809759 -29.556
ltibia 45.8777
lfoot -21.5836 12.3779
ltoes 8.06025
417
root 3.98003 16.6494 0.216253 13.274 1.15709 0.782963
lowerback 4.34158 -0.982459 5.13556
upperback 1.40672 -1.13066 -2.99115
thorax -1.14219 -0.56622 -5.93724
lowerneck -9.09507 5.43012 0.878029
upperneck 52.8372 8.2107 1.91295
head 25.2442 3.29757 2.73898
rclavicle 5.36719e-015 5.96354e-015
rhumerus -36.3144 21.97 -88.0505
rradius 102.966
rwrist -52.7778
rhand 0.809659 -36.7427
rfingers 7.12502
rthumb 26.3657 -64.9297
lclavicle 5.36719e-015 5.96354e-015
lhumerus 0.279533 -11.4806 70.0722
lradius 94.8381
lwrist 59.4157
lhand -21.4169 -22.2538
lfingers 7.12502
lthumb 4.97176 7.66789
rfemur -59.7419 6.75403 16.5804
rtibia 79.3222
rfoot 14.4126 -4.00089
rtoes -22.9652
lfemur -34.9174 -0.87189 -29.8287
ltibia 45.9075
lfoot -21.5404 12.4479
ltoes 7.97186
418
root 3.98099 16.6537 0.226528 13.2284 1.1955 1.05489
lowerback 4.2378 -0.942071 5.02189
upperback 1.4942 -1.08799 -3.13443
thorax -0.988305 -0.537608 -6.02742
lowerneck -9.11483 5.40379 1.04791
upperneck 52.8806 8.07918 1.98764
head 25.3211 3.29066 2.73042
rclavicle 7.95139e-016 3.97569e-015
rhumerus -36.4831 21.7379 -88.5318
rradius 102.806
rwrist -52.7963
rhand 1.05749 -37.8461
rfingers 7.12502
rthumb 26.6029 -65.9973
lclavicle 7.95139e-016 3.97569e-015
lhumerus -0.0955847 -11.6758 70.5022
lradius 94.8793
lwrist 59.8199
lhand -21.6241 -22.5175
lfingers 7.12502
lthumb 4.77171 7.40881
rfemur -59.591 6.52082 16.2773
rtibia 79.3488
rfoot 14.1798 -3.81471
rtoes -23.4814
lfemur -34.7453 -1.07486 -30.117
ltibia 45.9246
lfoot -21.6683 12.5274
ltoes 8.29181
419
root 3.9787 16.656 0.227031 13.1599 1.28441 1.20654
lowerback 4.24949 -0.94844 5.0045
upperback 1.6127 -1.09784 -3.22221
thorax -0.874911 -0.535713 -6.11027
lowerneck -9.03851 5.45179 1.27598
upperneck 52.7023 8.13916 1.84274
head 25.1121 3.35895 2.59236
rclavicle 6.55989e-015 8.74653e-015
rhumerus -36.4759 21.6768 -89.0068
rradius 102.558
rwrist -52.8263
rhand 0.723496 -37.8978
rfingers 7.12502
rthumb 26.2832 -66.0972
lclavicle 6.55989e-015 8.74653e-015
lhumerus -0.161362 -11.8393 70.8215
lradius 94.8031
lwrist 60.2776
lhand -21.8487 -22.4584
lfingers 7.12502
lthumb 4.55483 7.47261
rfemur -59.4464 6.31192 16.1526
rtibia 79.3623
rfoot 14.0716 -3.62976
rtoes -23.7083
lfemur -34.6152 -1.28056 -30.2592
ltibia 45.9804
lfoot -21.781 12.6455
ltoes 8.31763
